<svg viewBox="0 0 32 32" xmlns="http://www.w3.org/2000/svg"><path d="M22.707 9.293a1 1 0 0 0-1.023-.242l-9 3a1.001 1.001 0 0 0-.633.633l-3 9a1 1 0 0 0 1.265 1.265l9-3a1.001 1.001 0 0 0 .633-.633l3-9a1 1 0 0 0-.242-1.023ZM11.581 20.42l2.21-6.628 4.419 4.419Z" fill="#356dfa" class="fill-000000"></path><path d="M16 30a14 14 0 1 1 14-14 14.016 14.016 0 0 1-14 14Zm0-26a12 12 0 1 0 12 12A12.014 12.014 0 0 0 16 4Z" fill="#356dfa" class="fill-000000"></path><path data-name="<Transparent Rectangle>" d="M0 0h32v32H0z" fill="none"></path></svg>